<svg xmlns="http://www.w3.org/2000/svg" viewBox="0 0 40 40" id="hm">
  <g>
    <path d="M26.08 10.71c1.09-.54 1.63-.47 1.64.07a17.72 17.72 0 0 1-.16 2.32c-.4 3.69-1.08 6.7-1.13 10.48 1.78-4.6 3.27-7.81 5.19-11.75.61-1.26 1-1 1.5-1.25 2-.87 2-.33 1.77.73-.94 3.94-3.37 16.34-3.74 18.24-.1.56-.7.32-.86.11-.69-1-1.48-1-1.39-1.62.43-3.18 2-11.17 2.41-13-2.08 4.28-4.24 9.62-5.36 12.65-.23.64-.66.6-.93.12-.37-.66-1.1-1-1.22-1.78-.38-2.48.44-7.22.55-10.21-1.14 3.27-3 9.62-3.88 12.5-.34 1.18-1.49 1-1.18-.17 1.26-4.82 4-13.34 5.18-16.4.28-.72 1-.7 1.61-1m-6.92-.64c-.37-.09-1.43.49-2.09.6a.78.78 0 0 0-.48.42c-1.05 2.41-2 4.71-2.81 6.81-1 .18-2.26.41-3.63.72 1-2.51 2-5 2.93-7.36.48-1.18-.77-1.29-1.26-.1-.62 1.54-1.82 4.43-3.11 7.8-1 .24-2 .5-3 .81-.77.22-.8.43-.47.89.19.26.57.24.74.42.45.48.72 1.05 1.53 1.13-.76 1.93-1.51 3.91-2.13 5.82-.41 1.2.76 1.44 1.2.18.73-2.05 1.49-4.12 2.27-6.18.65-.16 2.23-.5 3.68-.81-1.15 3.16-1.91 5.57-2.2 6.74a.55.55 0 0 0 .08.44c.39.57.76.59 1.26 1.29a.42.42 0 0 0 .75-.17c1.07-3.24 2.17-6.27 3.2-9a2.51 2.51 0 0 0 1.66-1c.84-1.24 1.08-1 1.28-1.37s.08-.92-.81-.81c0 0-.33 0-1 .1 1-2.55 1.86-4.71 2.48-6.35.21-.56.24-1-.11-1.05"></path>
    <path d="M17.7 26.61c.23.58.95.41.68-.29s-1-2.87-1.15-3.56c-.25-.94.82-.68.28-.07s-.78.73-1.64 1.73-.6 2.22.29 2.49 1.88-.79 2.43-1.6 0-1.24-.52-.78a9.07 9.07 0 0 1-1.14 1c-.33.2-.58 0-.15-.61s1.07-1.28 1.5-1.94a1 1 0 1 0-1.58-1.24 1.29 1.29 0 0 0-.18 1.31c.17.63.81 2.62 1.18 3.56"></path>
  </g>
</svg>
