<svg xmlns="http://www.w3.org/2000/svg"  viewBox="0 0 100 100" width="100px" height="100px"><path fill="#c7ede6" d="M87.215,56.71C88.35,54.555,89,52.105,89,49.5c0-6.621-4.159-12.257-10.001-14.478	C78.999,35.015,79,35.008,79,35c0-11.598-9.402-21-21-21c-9.784,0-17.981,6.701-20.313,15.757C36.211,29.272,34.638,29,33,29	c-7.692,0-14.023,5.793-14.89,13.252C12.906,43.353,9,47.969,9,53.5C9,59.851,14.149,65,20.5,65c0.177,0,0.352-0.012,0.526-0.022	C21.022,65.153,21,65.324,21,65.5C21,76.822,30.178,86,41.5,86c6.437,0,12.175-2.972,15.934-7.614C59.612,80.611,62.64,82,66,82	c4.65,0,8.674-2.65,10.666-6.518C77.718,75.817,78.837,76,80,76c6.075,0,11-4.925,11-11C91,61.689,89.53,58.727,87.215,56.71z"/><path fill="#fdfcef" d="M86.875,48.236c0,0,3.64,0,6.125,0s4.5-2.015,4.5-4.5c0-2.333-1.782-4.229-4.055-4.455 c0.022-0.181,0.055-0.358,0.055-0.545c0-2.485-2.015-4.5-4.5-4.5c-1.438,0-2.703,0.686-3.527,1.736 c-0.14-2.636-2.302-4.736-4.973-4.736c-2.761,0-5,2.239-5,5c0,0.446,0.077,0.87,0.187,1.282c-0.642-0.777-1.6-1.282-2.687-1.282 c-1.781,0-3.234,1.335-3.455,3.055c-0.181-0.022-0.358-0.055-0.545-0.055c-2.485,0-4.5,2.015-4.5,4.5s2.015,4.5,4.5,4.5 s9.5,0,9.5,0h5.375v0.5h3V48.236z"/><path fill="#472b29" d="M80.5,30.736c-3.033,0-5.5,2.467-5.5,5.5c0,0.016,0,0.031,0,0.047c-0.602-0.354-1.29-0.547-2-0.547 c-1.831,0-3.411,1.261-3.858,3.005c-0.047-0.003-0.094-0.005-0.142-0.005c-2.757,0-5,2.243-5,5s2.243,5,5,5h14.875 c0.276,0,0.5-0.224,0.5-0.5s-0.224-0.5-0.5-0.5H69c-2.206,0-4-1.794-4-4s1.794-4,4-4c0.117,0,0.23,0.017,0.343,0.032l0.141,0.019 c0.021,0.003,0.041,0.004,0.062,0.004c0.246,0,0.462-0.185,0.495-0.437c0.191-1.493,1.463-2.618,2.959-2.618 c0.885,0,1.723,0.401,2.301,1.1c0.098,0.118,0.241,0.182,0.386,0.182c0.078,0,0.156-0.018,0.228-0.056 c0.209-0.107,0.314-0.346,0.254-0.573C76.054,36.954,76,36.587,76,36.236c0-2.481,2.019-4.5,4.5-4.5 c2.381,0,4.347,1.872,4.474,4.263c0.011,0.208,0.15,0.387,0.349,0.45c0.05,0.016,0.101,0.024,0.152,0.024 c0.15,0,0.296-0.069,0.392-0.192c0.771-0.981,1.913-1.544,3.133-1.544c2.206,0,4,1.794,4,4c0,0.117-0.017,0.23-0.032,0.343 l-0.019,0.141c-0.016,0.134,0.022,0.268,0.106,0.373c0.084,0.105,0.207,0.172,0.34,0.185C95.451,39.983,97,41.684,97,43.736 c0,2.206-1.794,4-4,4h-6.125c-0.276,0-0.5,0.224-0.5,0.5s0.224,0.5,0.5,0.5H93c2.757,0,5-2.243,5-5 c0-2.397-1.689-4.413-4.003-4.877C93.999,38.818,94,38.777,94,38.736c0-2.757-2.243-5-5-5c-1.176,0-2.293,0.416-3.183,1.164 C85.219,32.496,83.055,30.736,80.5,30.736L80.5,30.736z"/><path fill="#472b29" d="M79,37.736c-1.403,0-2.609,0.999-2.913,2.341c-0.367-0.222-0.786-0.341-1.212-0.341 c-1.202,0-2.198,0.897-2.353,2.068c-0.203-0.045-0.396-0.068-0.585-0.068c-1.529,0-2.811,1.2-2.918,2.732 c-0.009,0.138,0.094,0.257,0.232,0.267c0.006,0,0.012,0,0.018,0c0.13,0,0.24-0.101,0.249-0.232 c0.089-1.271,1.151-2.268,2.419-2.268c0.229,0,0.47,0.042,0.738,0.127c0.022,0.007,0.045,0.01,0.067,0.01 c0.055,0,0.11-0.02,0.156-0.054C72.962,42.273,73,42.19,73,42.111c0-1.034,0.841-1.875,1.875-1.875 c0.447,0,0.885,0.168,1.231,0.473c0.047,0.041,0.106,0.063,0.165,0.063c0.032,0,0.063-0.006,0.093-0.019 c0.088-0.035,0.148-0.117,0.155-0.212c0.102-1.292,1.191-2.305,2.479-2.305c0.208,0,0.425,0.034,0.682,0.107 c0.023,0.007,0.047,0.01,0.07,0.01c0.109,0,0.207-0.073,0.239-0.182c0.038-0.133-0.039-0.271-0.172-0.309 C79.517,37.776,79.256,37.736,79,37.736L79,37.736z"/><path fill="#472b29" d="M92.883,39.236c-1.326,0-2.508,0.897-2.874,2.182c-0.038,0.133,0.039,0.271,0.172,0.309 c0.023,0.007,0.046,0.01,0.068,0.01c0.109,0,0.209-0.072,0.24-0.182c0.305-1.071,1.289-1.818,2.393-1.818 c0.117,0,0.23,0.014,0.342,0.029c0.012,0.002,0.023,0.003,0.035,0.003c0.121,0,0.229-0.092,0.246-0.217 c0.019-0.137-0.077-0.263-0.214-0.281C93.158,39.251,93.022,39.236,92.883,39.236L92.883,39.236z"/><path fill="#fff" d="M15.405,51H5.5C5.224,51,5,50.776,5,50.5S5.224,50,5.5,50h9.905c0.276,0,0.5,0.224,0.5,0.5 S15.682,51,15.405,51z"/><path fill="#fff" d="M18.5,51h-1c-0.276,0-0.5-0.224-0.5-0.5s0.224-0.5,0.5-0.5h1c0.276,0,0.5,0.224,0.5,0.5 S18.777,51,18.5,51z"/><path fill="#fff" d="M23.491,53H14.5c-0.276,0-0.5-0.224-0.5-0.5s0.224-0.5,0.5-0.5h8.991c0.276,0,0.5,0.224,0.5,0.5 S23.767,53,23.491,53z"/><path fill="#fff" d="M12.5,53h-1c-0.276,0-0.5-0.224-0.5-0.5s0.224-0.5,0.5-0.5h1c0.276,0,0.5,0.224,0.5,0.5 S12.777,53,12.5,53z"/><path fill="#fff" d="M9.5,53h-2C7.224,53,7,52.776,7,52.5S7.224,52,7.5,52h2c0.276,0,0.5,0.224,0.5,0.5S9.777,53,9.5,53z"/><path fill="#fff" d="M15.5,55h-2c-0.276,0-0.5-0.224-0.5-0.5s0.224-0.5,0.5-0.5h2c0.276,0,0.5,0.224,0.5,0.5 S15.776,55,15.5,55z"/><path fill="#fff" d="M18.5,46c-0.177,0-0.823,0-1,0c-0.276,0-0.5,0.224-0.5,0.5c0,0.276,0.224,0.5,0.5,0.5 c0.177,0,0.823,0,1,0c0.276,0,0.5-0.224,0.5-0.5C19,46.224,18.776,46,18.5,46z"/><path fill="#fff" d="M18.5,48c-0.177,0-4.823,0-5,0c-0.276,0-0.5,0.224-0.5,0.5c0,0.276,0.224,0.5,0.5,0.5 c0.177,0,4.823,0,5,0c0.276,0,0.5-0.224,0.5-0.5C19,48.224,18.776,48,18.5,48z"/><path fill="#fff" d="M23.5,50c-0.177,0-2.823,0-3,0c-0.276,0-0.5,0.224-0.5,0.5c0,0.276,0.224,0.5,0.5,0.5 c0.177,0,2.823,0,3,0c0.276,0,0.5-0.224,0.5-0.5C24,50.224,23.776,50,23.5,50z"/><path fill="#fff" d="M72.5,24h-10c-0.276,0-0.5-0.224-0.5-0.5s0.224-0.5,0.5-0.5h10c0.276,0,0.5,0.224,0.5,0.5 S72.776,24,72.5,24z"/><path fill="#fff" d="M76.5,24h-2c-0.276,0-0.5-0.224-0.5-0.5s0.224-0.5,0.5-0.5h2c0.276,0,0.5,0.224,0.5,0.5 S76.776,24,76.5,24z"/><path fill="#fff" d="M81.5,26h-10c-0.276,0-0.5-0.224-0.5-0.5s0.224-0.5,0.5-0.5h10c0.276,0,0.5,0.224,0.5,0.5 S81.777,26,81.5,26z"/><path fill="#fff" d="M69.5,26h-1c-0.276,0-0.5-0.224-0.5-0.5s0.224-0.5,0.5-0.5h1c0.276,0,0.5,0.224,0.5,0.5 S69.776,26,69.5,26z"/><path fill="#fff" d="M66.375,26H64.5c-0.276,0-0.5-0.224-0.5-0.5s0.224-0.5,0.5-0.5h1.875c0.276,0,0.5,0.224,0.5,0.5 S66.651,26,66.375,26z"/><path fill="#fff" d="M75.5,22h-5c-0.276,0-0.5-0.224-0.5-0.5s0.224-0.5,0.5-0.5h5c0.276,0,0.5,0.224,0.5,0.5 S75.777,22,75.5,22z"/><path fill="#fff" d="M72.5,28h-2c-0.276,0-0.5-0.224-0.5-0.5s0.224-0.5,0.5-0.5h2c0.276,0,0.5,0.224,0.5,0.5 S72.776,28,72.5,28z"/><path fill="#605e60" d="M67.74,65.231l-16.905-29.38l12.145-6.976l21.022,36.356H67.74z"/><path fill="#472b29" d="M84.001,65.932H67.74c-0.25,0-0.481-0.134-0.606-0.351L50.228,36.2	c-0.093-0.161-0.118-0.352-0.069-0.532c0.049-0.179,0.166-0.332,0.327-0.424l12.146-6.976c0.337-0.192,0.762-0.077,0.955,0.256	l21.021,36.356c0.125,0.217,0.125,0.484,0,0.7C84.482,65.798,84.251,65.932,84.001,65.932z M68.146,64.531h14.643L62.723,29.83	l-10.933,6.28L68.146,64.531z"/><path fill="#605e60" d="M22.711,61.115l12.145-7.023l6.426,11.139H25.068L22.711,61.115z"/><path fill="#472b29" d="M41.282,65.932H25.067c-0.251,0-0.482-0.135-0.607-0.353l-2.356-4.117	c-0.191-0.334-0.076-0.761,0.257-0.954l12.145-7.023c0.161-0.094,0.351-0.118,0.531-0.07c0.18,0.048,0.333,0.166,0.426,0.327	l6.427,11.14c0.125,0.216,0.125,0.483,0,0.7S41.532,65.932,41.282,65.932z M25.474,64.531H40.07L34.6,55.048l-10.935,6.324	L25.474,64.531z"/><path fill="#472b29" d="M36.607,63.031H29.56c-0.276,0-0.5-0.224-0.5-0.5s0.224-0.5,0.5-0.5h6.183l-0.683-1.183	c-0.139-0.239-0.057-0.545,0.183-0.683c0.24-0.139,0.545-0.057,0.683,0.183l1.115,1.933c0.09,0.155,0.09,0.345,0,0.5	C36.951,62.936,36.786,63.031,36.607,63.031z"/><g><path fill="#fdfcef" d="M30.467,75.5c0,0,1.567,0,3.5,0s3.5-1.567,3.5-3.5c0-1.781-1.335-3.234-3.055-3.455 c0.028-0.179,0.055-0.358,0.055-0.545c0-1.933-1.567-3.5-3.5-3.5c-1.032,0-1.95,0.455-2.59,1.165 c-0.384-1.808-1.987-3.165-3.91-3.165c-2.209,0-4,1.791-4,4c0,0.191,0.03,0.374,0.056,0.558c-0.428-0.344-0.965-0.558-1.556-0.558 c-1.228,0-2.245,0.887-2.455,2.055c-0.179-0.028-0.358-0.055-0.545-0.055c-1.933,0-3.5,1.567-3.5,3.5s1.567,3.5,3.5,3.5 s7.5,0,7.5,0V76h7V75.5z"/><path fill="#472b29" d="M32.217,71c-0.138,0-0.25-0.112-0.25-0.25c0-1.223,0.995-2.218,2.218-2.218 c0.034,0.009,0.737-0.001,1.244,0.136c0.133,0.036,0.212,0.173,0.176,0.306c-0.036,0.134-0.173,0.213-0.306,0.176 c-0.444-0.12-1.1-0.12-1.113-0.118c-0.948,0-1.719,0.771-1.719,1.718C32.467,70.888,32.356,71,32.217,71z"/><circle cx="25.467" cy="75.5" r=".5" fill="#472b29"/><path fill="#472b29" d="M33.967,76h-3.5c-0.276,0-0.5-0.224-0.5-0.5s0.224-0.5,0.5-0.5h3.5c1.654,0,3-1.346,3-3 c0-1.496-1.125-2.768-2.618-2.959c-0.134-0.018-0.255-0.088-0.336-0.196s-0.115-0.244-0.094-0.377 c0.024-0.153,0.049-0.308,0.049-0.468c0-1.654-1.346-3-3-3c-0.85,0-1.638,0.355-2.219,1c-0.125,0.139-0.321,0.198-0.5,0.148 c-0.182-0.049-0.321-0.195-0.36-0.379C27.547,64.165,26.109,63,24.467,63c-1.93,0-3.5,1.57-3.5,3.5c0,0.143,0.021,0.28,0.041,0.418 c0.029,0.203-0.063,0.438-0.242,0.54c-0.179,0.102-0.396,0.118-0.556-0.01C19.846,67.155,19.416,67,18.967,67 c-0.966,0-1.792,0.691-1.963,1.644c-0.048,0.267-0.296,0.446-0.569,0.405C16.282,69.025,16.128,69,15.967,69c-1.654,0-3,1.346-3,3 s1.346,3,3,3h7.5c0.276,0,0.5,0.224,0.5,0.5s-0.224,0.5-0.5,0.5h-7.5c-2.206,0-4-1.794-4-4s1.794-4,4-4 c0.059,0,0.116,0.002,0.174,0.006C16.555,66.82,17.678,66,18.967,66c0.349,0,0.689,0.061,1.011,0.18 c0.165-2.333,2.115-4.18,4.489-4.18c1.831,0,3.466,1.127,4.153,2.774C29.301,64.276,30.123,64,30.967,64c2.206,0,4,1.794,4,4 c0,0.048-0.001,0.095-0.004,0.142c1.743,0.448,3.004,2.027,3.004,3.858C37.967,74.206,36.173,76,33.967,76z"/><path fill="#472b29" d="M28.467,75c-0.159,0-0.841,0-1,0c-0.276,0-0.5,0.224-0.5,0.5c0,0.276,0.224,0.5,0.5,0.5 c0.159,0,0.841,0,1,0c0.276,0,0.5-0.224,0.5-0.5C28.967,75.224,28.744,75,28.467,75z"/></g><path fill="#605e60" d="M36.945,48.64l12.145-7.007l13.622,23.599l-16.167-0.016L36.945,48.64z"/><path fill="#472b29" d="M62.712,65.932C62.712,65.932,62.712,65.932,62.712,65.932l-16.168-0.016	c-0.249,0-0.479-0.133-0.604-0.35l-9.6-16.575c-0.094-0.161-0.119-0.352-0.07-0.531c0.048-0.18,0.165-0.333,0.326-0.426	l12.146-7.007c0.337-0.193,0.763-0.078,0.956,0.256l13.621,23.599c0.125,0.217,0.125,0.484,0,0.7	C63.192,65.798,62.962,65.932,62.712,65.932z M46.948,64.516l14.551,0.015L48.834,42.589l-10.932,6.307L46.948,64.516z"/><path fill="#472b29" d="M72.5,63.031h-2.9c-0.276,0-0.5-0.224-0.5-0.5s0.224-0.5,0.5-0.5h2.9c0.276,0,0.5,0.224,0.5,0.5	S72.776,63.031,72.5,63.031z"/><path fill="#472b29" d="M79.321,63.031H75.5c-0.276,0-0.5-0.224-0.5-0.5s0.224-0.5,0.5-0.5h2.954l-4.767-8.244	c-0.139-0.239-0.057-0.545,0.183-0.683c0.235-0.14,0.544-0.058,0.683,0.182l5.201,8.994c0.09,0.155,0.09,0.346,0,0.5	C79.665,62.936,79.5,63.031,79.321,63.031z"/><path fill="#472b29" d="M72.254,50.809c-0.172,0-0.34-0.089-0.433-0.25l-8.549-14.784c-0.139-0.239-0.057-0.545,0.183-0.683	c0.235-0.14,0.544-0.058,0.683,0.182l8.549,14.784c0.139,0.239,0.057,0.545-0.183,0.683C72.426,50.787,72.339,50.809,72.254,50.809z"/><path fill="#472b29" d="M45.034,57.72c-0.172,0-0.34-0.089-0.433-0.25l-4.397-7.592c-0.066-0.115-0.085-0.251-0.051-0.379	c0.034-0.128,0.118-0.238,0.233-0.304l1.875-1.082c0.239-0.138,0.545-0.056,0.683,0.183c0.139,0.239,0.057,0.545-0.183,0.683	L41.32,49.81l4.146,7.159c0.139,0.239,0.057,0.545-0.182,0.683C45.206,57.698,45.12,57.72,45.034,57.72z"/><path fill="#472b29" d="M48.103,63.017c-0.172,0-0.34-0.089-0.433-0.25l-1.654-2.855c-0.139-0.239-0.057-0.545,0.182-0.683	c0.236-0.139,0.544-0.058,0.684,0.182l1.654,2.855c0.139,0.239,0.057,0.545-0.182,0.683C48.274,62.996,48.188,63.017,48.103,63.017z"/></svg>