<svg xmlns="http://www.w3.org/2000/svg" viewBox="0 0 24 24" id="puma">
  <path d="m19.842 20.999-.029-.001c-1.788-.105-1.789-2.129-1.789-2.891v-.169c-1.978-1.457-2.775-3.035-3.362-4.196-.67-1.324-.986-1.861-2.111-1.868-3.427-.017-4.691-1.256-5.614-2.161-.142-.137-.275-.268-.409-.387-.249.222-.693.566-1.59.566-.866 0-1.722-.396-2.346-.684-.112-.051-.243-.113-.359-.162-.14.446-.439.649-.896.649-.753 0-1.321-.535-1.321-1.244 0-.447.229-.877.629-1.18.261-.197.587-.336.963-.413a1.854 1.854 0 0 1-.318-.29c-.037-.04-.072-.08-.109-.112-.065-.056-.14-.102-.207-.145-.227-.144-.605-.385-.605-.909 0-.439.303-.657.465-.773.036-.026.091-.065.104-.082l.013-.097c.014-.096.032-.227.104-.355.158-.28.393-.391.548-.464a.624.624 0 0 0 .151-.086c.083-.081.172-.25.243-.385.138-.261.279-.531.604-.578.306-.007.469.122.602.263.144-.145.333-.282.583-.282.285 0 .479.173.786.743 2.3.23 4.272 1.833 6.184 3.384 1.769 1.436 3.439 2.792 5.09 2.792 1.596 0 2.118-.988 2.903-2.735.612-1.363 1.307-2.908 2.948-3.86 1.242-.721 2.307-.222 2.307.826 0 1.19-1.067 1.678-1.926 2.07l-.131.06c-1.218.567-1.561 1.403-1.958 2.372-.37.9-.784 1.911-1.929 2.766.396.507.89 1.5.89 3.836 0 1.098.289 1.297.594 1.509.271.188.68.471.68 1.181 0 .348.131.544.269.752.125.188.268.402.268.69 0 .19-.062.324-.104.412-.036.077-.067.144-.067.35l.011.402a.5.5 0 0 1-.261.439.501.501 0 0 1-.498.447zM6.53 8.24c.133 0 .28.042.438.153.236.186.445.388.668.606.845.829 1.897 1.86 4.92 1.875 1.781.011 2.345 1.125 2.998 2.417.588 1.163 1.319 2.609 3.216 3.952.254.172.254.447.254.863 0 .97.104 1.632.571 1.832l-.006-.229c0-.394.083-.605.161-.772a1.19 1.19 0 0 1-.09-.127c-.174-.261-.436-.656-.436-1.306 0-.186-.023-.203-.249-.358-.519-.359-1.024-.835-1.024-2.331 0-2.545-.61-3.168-.84-3.403-.106-.108-.284-.291-.251-.571.032-.285.258-.428.343-.481.191-.124.36-.251.511-.383-.485.315-1.088.505-1.867.505-2.006 0-3.81-1.465-5.72-3.016-1.866-1.517-3.796-3.083-5.894-3.184a.502.502 0 0 1-.423-.275 5.466 5.466 0 0 0-.112-.215c-.124.13-.279.249-.5.249a.633.633 0 0 1-.44-.187c-.083.14-.182.286-.31.41a1.478 1.478 0 0 1-.417.27.893.893 0 0 0-.109.058.756.756 0 0 1-.061.333c-.099.257-.286.402-.421.5l.07.043c.104.067.215.139.322.23.068.058.131.124.193.192.05.054.125.136.158.152a.64.64 0 0 1 .142-.047c.201-.056.477-.131.78-.042.389.113.954.277.954 1.044 0 .123 0 .497-.285.734-.288.237-.633.175-.941.119-.145-.027-.312-.06-.498-.06-.594 0-.918.152-1.086.279-.148.112-.233.251-.233.383 0 .144.102.231.28.242l.002-.011c.083-.597.431-.723.707-.723.271 0 .58.143 1.007.34.54.25 1.279.592 1.926.592.581 0 .789-.189.974-.356.103-.094.325-.296.618-.296zm16.309-4.716c-.093 0-.299.029-.639.227-.839.486-1.388 1.177-1.82 1.936a4.416 4.416 0 0 1 1.148-.752l.136-.062c.834-.381 1.341-.65 1.341-1.161 0-.188-.084-.188-.166-.188z"></path>
</svg>
